<?xml version="1.0" encoding="utf-8"?>
<!-- Generator: Adobe Illustrator 25.2.1, SVG Export Plug-In . SVG Version: 6.00 Build 0)  -->
<svg version="1.1" id="Layer_1" xmlns="http://www.w3.org/2000/svg" xmlns:xlink="http://www.w3.org/1999/xlink" x="0px" y="0px"
	 viewBox="0 0 200 200" style="enable-background:new 0 0 200 200;" xml:space="preserve">
<g>
	<path d="M16.02,99.99c0-15.43,0.02-30.86-0.04-46.29c-0.01-1.63,0.46-2.54,1.91-3.37C44.72,34.91,71.51,19.45,98.27,3.93
		c1.29-0.75,2.16-0.69,3.42,0.04c26.77,15.51,53.56,30.98,80.38,46.4c1.44,0.83,1.95,1.7,1.95,3.36c-0.05,30.86-0.05,61.71,0,92.57
		c0,1.67-0.55,2.51-1.97,3.33c-26.82,15.43-53.6,30.9-80.37,46.42c-1.27,0.74-2.15,0.75-3.42,0.01
		C71.41,180.51,44.56,165,17.67,149.53c-1.31-0.75-1.68-1.59-1.68-3.02C16.04,131,16.02,115.49,16.02,99.99z M23.47,100.01
		c0,14.07,0.02,28.15-0.03,42.22c0,1.34,0.33,2.14,1.56,2.84c24.33,14,48.65,28.03,72.93,42.12c1.49,0.87,2.54,0.86,4.05-0.01
		c24.21-14.05,48.46-28.05,72.73-42c1.39-0.8,1.78-1.67,1.78-3.2c-0.05-27.99-0.05-55.97,0.01-83.96c0-1.71-0.62-2.51-2.01-3.31
		c-24.26-13.96-48.5-27.97-72.72-42.01c-1.33-0.77-2.29-0.77-3.63,0.01C73.93,26.77,49.7,40.79,25.43,54.73
		c-1.56,0.89-2.01,1.82-2,3.54C23.5,72.18,23.47,86.09,23.47,100.01z"/>
	<path d="M99.93,78.66c-12.79,0-25.58-0.04-38.36,0.04c-2.03,0.01-2.38-0.48-1.92-2.42c2.29-9.7,4.47-19.42,6.61-29.15
		c0.38-1.7,0.96-2.38,2.92-2.37c20.46,0.1,40.92,0.09,61.38,0.02c1.9-0.01,2.51,0.58,2.91,2.39c2.16,9.65,4.45,19.27,6.81,28.87
		c0.49,2,0.43,2.71-2,2.69C125.51,78.59,112.72,78.66,99.93,78.66z"/>
	<path d="M78.65,113.56c0,2.32,0.24,4.67-0.06,6.94c-0.42,3.21,0.85,5.34,3.19,7.37c3.55,3.09,6.86,6.45,10.26,9.71
		c2.09,2.01,2.07,7.49-0.03,9.45c-3.85,3.6-7.73,7.16-11.55,10.79c-0.8,0.76-1.57,1.18-2.72,1.15c-3.03-0.08-6.07-0.08-9.11,0
		c-1.21,0.03-1.85-0.4-2.44-1.43c-9.51-16.59-19.05-33.17-28.61-49.73c-0.58-1-0.55-1.51,0.46-2.25
		c6.64-4.85,13.22-9.77,19.79-14.71c0.89-0.67,1.51-0.74,2.48-0.12c5.69,3.68,11.42,7.3,17.16,10.89c0.94,0.59,1.23,1.27,1.2,2.34
		C78.61,107.16,78.65,110.36,78.65,113.56z"/>
	<path d="M126.84,158.79c-4.22,0.98-7.26-0.79-10.07-3.83c-2.59-2.8-5.57-5.25-8.44-7.78c-1.03-0.91-1.36-1.87-1.52-3.25
		c-0.43-3.67,0.77-6.28,3.67-8.63c3.4-2.76,6.34-6.07,9.55-9.06c1.13-1.06,1.63-2.16,1.6-3.75c-0.09-6.07,0-12.14-0.06-18.21
		c-0.01-1.33,0.33-2.16,1.52-2.91c5.53-3.49,11.01-7.06,16.45-10.68c1.03-0.69,1.66-0.71,2.67,0.06
		c6.46,4.95,12.95,9.87,19.52,14.67c1.26,0.92,1.08,1.54,0.44,2.65c-9.38,16.29-18.75,32.59-28.05,48.93
		c-0.79,1.38-1.62,1.97-3.19,1.81C129.56,158.68,128.2,158.79,126.84,158.79z"/>
	<path d="M121.4,83.76c-1.94,5.16-3.7,10.19-5.73,15.1c-1.08,2.62-1.21,5.19-0.9,7.93c0.58,5.07,0.98,10.17,1.57,15.24
		c0.16,1.36-0.41,1.42-1.44,1.42c-9.99,0.01-19.97,0.03-29.96,0.08c-1.01,0.01-1.37-0.19-1.23-1.34c0.68-5.94,1.23-11.9,1.91-17.85
		c0.14-1.24,0.04-2.35-0.41-3.49c-2.19-5.63-4.35-11.27-6.59-17.1C92.91,83.76,107,83.76,121.4,83.76z"/>
</g>
</svg>
